<mxfile host="app.diagrams.net" agent="Mozilla/5.0 (Windows NT 10.0; Win64; x64) AppleWebKit/537.36 (KHTML, like Gecko) Chrome/131.0.0.0 Safari/537.36" version="26.0.2">
  <diagram name="Page-1" id="IN_19RE_OHsP08UdYH3B">
    <mxGraphModel dx="794" dy="412" grid="1" gridSize="10" guides="1" tooltips="1" connect="1" arrows="1" fold="1" page="1" pageScale="1" pageWidth="2300" pageHeight="2300" math="0" shadow="0">
      <root>
        <mxCell id="0" />
        <mxCell id="1" parent="0" />
        <mxCell id="C5m_k21MFH3tTQqy4yPL-23" value="" style="rounded=1;whiteSpace=wrap;html=1;" vertex="1" parent="1">
          <mxGeometry x="1010" y="115" width="610" height="135" as="geometry" />
        </mxCell>
        <mxCell id="C5m_k21MFH3tTQqy4yPL-2" value="Browser" style="rounded=1;whiteSpace=wrap;html=1;" vertex="1" parent="1">
          <mxGeometry x="40" y="140" width="120" height="60" as="geometry" />
        </mxCell>
        <mxCell id="C5m_k21MFH3tTQqy4yPL-3" value="" style="rounded=1;whiteSpace=wrap;html=1;" vertex="1" parent="1">
          <mxGeometry x="220" y="60" width="40" height="290" as="geometry" />
        </mxCell>
        <mxCell id="C5m_k21MFH3tTQqy4yPL-4" style="edgeStyle=orthogonalEdgeStyle;rounded=0;orthogonalLoop=1;jettySize=auto;html=1;entryX=0.033;entryY=0.382;entryDx=0;entryDy=0;entryPerimeter=0;" edge="1" parent="1" source="C5m_k21MFH3tTQqy4yPL-2" target="C5m_k21MFH3tTQqy4yPL-3">
          <mxGeometry relative="1" as="geometry" />
        </mxCell>
        <mxCell id="C5m_k21MFH3tTQqy4yPL-5" value="Qualitt check" style="rounded=1;whiteSpace=wrap;html=1;" vertex="1" parent="1">
          <mxGeometry x="810" y="175" width="120" height="60" as="geometry" />
        </mxCell>
        <mxCell id="C5m_k21MFH3tTQqy4yPL-7" value="" style="rounded=1;whiteSpace=wrap;html=1;" vertex="1" parent="1">
          <mxGeometry x="300" y="550" width="120" height="60" as="geometry" />
        </mxCell>
        <mxCell id="C5m_k21MFH3tTQqy4yPL-9" value="watch" style="rounded=1;whiteSpace=wrap;html=1;" vertex="1" parent="1">
          <mxGeometry x="310" y="450" width="120" height="60" as="geometry" />
        </mxCell>
        <mxCell id="C5m_k21MFH3tTQqy4yPL-10" value="search" style="rounded=1;whiteSpace=wrap;html=1;" vertex="1" parent="1">
          <mxGeometry x="310" y="360" width="120" height="60" as="geometry" />
        </mxCell>
        <mxCell id="C5m_k21MFH3tTQqy4yPL-12" value="S3 bucket" style="rounded=1;whiteSpace=wrap;html=1;fillColor=#fff2cc;strokeColor=#d6b656;" vertex="1" parent="1">
          <mxGeometry x="380" y="290" width="690" height="60" as="geometry" />
        </mxCell>
        <mxCell id="C5m_k21MFH3tTQqy4yPL-13" value="" style="shape=cylinder3;whiteSpace=wrap;html=1;boundedLbl=1;backgroundOutline=1;size=15;rotation=90;fillColor=#dae8fc;strokeColor=#6c8ebf;" vertex="1" parent="1">
          <mxGeometry x="695" y="-305" width="60" height="710" as="geometry" />
        </mxCell>
        <mxCell id="C5m_k21MFH3tTQqy4yPL-15" value="splitter" style="rounded=1;whiteSpace=wrap;html=1;" vertex="1" parent="1">
          <mxGeometry x="590" y="175" width="120" height="60" as="geometry" />
        </mxCell>
        <mxCell id="C5m_k21MFH3tTQqy4yPL-16" value="upload" style="rounded=1;whiteSpace=wrap;html=1;" vertex="1" parent="1">
          <mxGeometry x="390" y="180" width="120" height="60" as="geometry" />
        </mxCell>
        <mxCell id="C5m_k21MFH3tTQqy4yPL-17" value="1080" style="rounded=1;whiteSpace=wrap;html=1;" vertex="1" parent="1">
          <mxGeometry x="1040" y="170" width="120" height="60" as="geometry" />
        </mxCell>
        <mxCell id="C5m_k21MFH3tTQqy4yPL-44" style="edgeStyle=orthogonalEdgeStyle;rounded=0;orthogonalLoop=1;jettySize=auto;html=1;" edge="1" parent="1" source="C5m_k21MFH3tTQqy4yPL-18">
          <mxGeometry relative="1" as="geometry">
            <mxPoint x="1070" y="320" as="targetPoint" />
            <Array as="points">
              <mxPoint x="1270" y="300" />
              <mxPoint x="1071" y="300" />
            </Array>
          </mxGeometry>
        </mxCell>
        <mxCell id="C5m_k21MFH3tTQqy4yPL-18" value="720" style="rounded=1;whiteSpace=wrap;html=1;" vertex="1" parent="1">
          <mxGeometry x="1210" y="170" width="120" height="60" as="geometry" />
        </mxCell>
        <mxCell id="C5m_k21MFH3tTQqy4yPL-43" style="edgeStyle=orthogonalEdgeStyle;rounded=0;orthogonalLoop=1;jettySize=auto;html=1;entryX=1;entryY=0.5;entryDx=0;entryDy=0;" edge="1" parent="1" source="C5m_k21MFH3tTQqy4yPL-19" target="C5m_k21MFH3tTQqy4yPL-12">
          <mxGeometry relative="1" as="geometry">
            <Array as="points">
              <mxPoint x="1470" y="320" />
            </Array>
          </mxGeometry>
        </mxCell>
        <mxCell id="C5m_k21MFH3tTQqy4yPL-19" value="144" style="rounded=1;whiteSpace=wrap;html=1;" vertex="1" parent="1">
          <mxGeometry x="1410" y="170" width="120" height="60" as="geometry" />
        </mxCell>
        <mxCell id="C5m_k21MFH3tTQqy4yPL-20" value="consumer group A" style="text;html=1;align=center;verticalAlign=middle;resizable=0;points=[];autosize=1;strokeColor=none;fillColor=none;" vertex="1" parent="1">
          <mxGeometry x="1040" y="140" width="120" height="30" as="geometry" />
        </mxCell>
        <mxCell id="C5m_k21MFH3tTQqy4yPL-21" value="consumer group B" style="text;html=1;align=center;verticalAlign=middle;resizable=0;points=[];autosize=1;strokeColor=none;fillColor=none;" vertex="1" parent="1">
          <mxGeometry x="1200" y="140" width="120" height="30" as="geometry" />
        </mxCell>
        <mxCell id="C5m_k21MFH3tTQqy4yPL-22" value="consumer group B" style="text;html=1;align=center;verticalAlign=middle;resizable=0;points=[];autosize=1;strokeColor=none;fillColor=none;" vertex="1" parent="1">
          <mxGeometry x="1410" y="140" width="120" height="30" as="geometry" />
        </mxCell>
        <mxCell id="C5m_k21MFH3tTQqy4yPL-25" value="Transcoding service" style="text;html=1;align=center;verticalAlign=middle;resizable=0;points=[];autosize=1;strokeColor=none;fillColor=none;" vertex="1" parent="1">
          <mxGeometry x="1195" y="88" width="130" height="30" as="geometry" />
        </mxCell>
        <mxCell id="C5m_k21MFH3tTQqy4yPL-29" style="edgeStyle=orthogonalEdgeStyle;rounded=0;orthogonalLoop=1;jettySize=auto;html=1;entryX=1.033;entryY=0.887;entryDx=0;entryDy=0;entryPerimeter=0;" edge="1" parent="1" source="C5m_k21MFH3tTQqy4yPL-16" target="C5m_k21MFH3tTQqy4yPL-13">
          <mxGeometry relative="1" as="geometry" />
        </mxCell>
        <mxCell id="C5m_k21MFH3tTQqy4yPL-30" value="SplitCOmpleted" style="text;html=1;align=center;verticalAlign=middle;resizable=0;points=[];autosize=1;strokeColor=none;fillColor=none;" vertex="1" parent="1">
          <mxGeometry x="590" y="110" width="110" height="30" as="geometry" />
        </mxCell>
        <mxCell id="C5m_k21MFH3tTQqy4yPL-31" value="UploadCompleted" style="text;html=1;align=center;verticalAlign=middle;resizable=0;points=[];autosize=1;strokeColor=none;fillColor=none;" vertex="1" parent="1">
          <mxGeometry x="410" y="108" width="120" height="30" as="geometry" />
        </mxCell>
        <mxCell id="C5m_k21MFH3tTQqy4yPL-32" value="Verified" style="text;html=1;align=center;verticalAlign=middle;resizable=0;points=[];autosize=1;strokeColor=none;fillColor=none;" vertex="1" parent="1">
          <mxGeometry x="825" y="110" width="60" height="30" as="geometry" />
        </mxCell>
        <mxCell id="C5m_k21MFH3tTQqy4yPL-33" value="" style="endArrow=classic;html=1;rounded=0;entryX=1.089;entryY=0.623;entryDx=0;entryDy=0;entryPerimeter=0;" edge="1" parent="1" target="C5m_k21MFH3tTQqy4yPL-13">
          <mxGeometry width="50" height="50" relative="1" as="geometry">
            <mxPoint x="640" y="170" as="sourcePoint" />
            <mxPoint x="870" y="150" as="targetPoint" />
          </mxGeometry>
        </mxCell>
        <mxCell id="C5m_k21MFH3tTQqy4yPL-35" value="" style="endArrow=classic;html=1;rounded=0;entryX=1.067;entryY=0.313;entryDx=0;entryDy=0;entryPerimeter=0;" edge="1" parent="1" target="C5m_k21MFH3tTQqy4yPL-13">
          <mxGeometry width="50" height="50" relative="1" as="geometry">
            <mxPoint x="860" y="170" as="sourcePoint" />
            <mxPoint x="870" y="150" as="targetPoint" />
          </mxGeometry>
        </mxCell>
        <mxCell id="C5m_k21MFH3tTQqy4yPL-36" style="edgeStyle=orthogonalEdgeStyle;rounded=0;orthogonalLoop=1;jettySize=auto;html=1;entryX=0.102;entryY=0.078;entryDx=0;entryDy=0;entryPerimeter=0;" edge="1" parent="1" source="C5m_k21MFH3tTQqy4yPL-16" target="C5m_k21MFH3tTQqy4yPL-12">
          <mxGeometry relative="1" as="geometry" />
        </mxCell>
        <mxCell id="C5m_k21MFH3tTQqy4yPL-37" style="edgeStyle=orthogonalEdgeStyle;rounded=0;orthogonalLoop=1;jettySize=auto;html=1;entryX=0.391;entryY=-0.011;entryDx=0;entryDy=0;entryPerimeter=0;" edge="1" parent="1" source="C5m_k21MFH3tTQqy4yPL-15" target="C5m_k21MFH3tTQqy4yPL-12">
          <mxGeometry relative="1" as="geometry" />
        </mxCell>
        <mxCell id="C5m_k21MFH3tTQqy4yPL-38" style="edgeStyle=orthogonalEdgeStyle;rounded=0;orthogonalLoop=1;jettySize=auto;html=1;entryX=0.712;entryY=-0.033;entryDx=0;entryDy=0;entryPerimeter=0;" edge="1" parent="1" source="C5m_k21MFH3tTQqy4yPL-5" target="C5m_k21MFH3tTQqy4yPL-12">
          <mxGeometry relative="1" as="geometry" />
        </mxCell>
        <mxCell id="C5m_k21MFH3tTQqy4yPL-40" style="edgeStyle=orthogonalEdgeStyle;rounded=0;orthogonalLoop=1;jettySize=auto;html=1;entryX=0.5;entryY=0;entryDx=0;entryDy=0;entryPerimeter=0;" edge="1" parent="1" source="C5m_k21MFH3tTQqy4yPL-23" target="C5m_k21MFH3tTQqy4yPL-13">
          <mxGeometry relative="1" as="geometry" />
        </mxCell>
        <mxCell id="C5m_k21MFH3tTQqy4yPL-41" value="Trnscodingcomplete" style="text;html=1;align=center;verticalAlign=middle;resizable=0;points=[];autosize=1;strokeColor=none;fillColor=none;" vertex="1" parent="1">
          <mxGeometry x="1095" y="18" width="130" height="30" as="geometry" />
        </mxCell>
        <mxCell id="C5m_k21MFH3tTQqy4yPL-42" style="edgeStyle=orthogonalEdgeStyle;rounded=0;orthogonalLoop=1;jettySize=auto;html=1;entryX=0.961;entryY=0.033;entryDx=0;entryDy=0;entryPerimeter=0;" edge="1" parent="1" source="C5m_k21MFH3tTQqy4yPL-17" target="C5m_k21MFH3tTQqy4yPL-12">
          <mxGeometry relative="1" as="geometry" />
        </mxCell>
      </root>
    </mxGraphModel>
  </diagram>
</mxfile>
